<?xml version="1.0" encoding="UTF-8" standalone="no"?>
<!DOCTYPE svg PUBLIC "-//W3C//DTD SVG 1.1//EN"
 "http://www.w3.org/Graphics/SVG/1.1/DTD/svg11.dtd">
<!-- Generated by graphviz version 2.43.0 (0)
 -->
<!-- Title: G Pages: 1 -->
<svg width="2283pt" height="1377pt"
 viewBox="0.00 0.00 2283.20 1377.43" xmlns="http://www.w3.org/2000/svg" xmlns:xlink="http://www.w3.org/1999/xlink">
<g id="graph0" class="graph" transform="scale(1 1) rotate(0) translate(21.6 1355.83)">
<title>G</title>
<polygon fill="#111111" stroke="transparent" points="-21.6,21.6 -21.6,-1355.83 2261.6,-1355.83 2261.6,21.6 -21.6,21.6"/>
<!-- App.css -->
<g id="node1" class="node">
<title>App.css</title>
<path fill="none" stroke="#cfffac" d="M206.33,-1334.23C206.33,-1334.23 156.67,-1334.23 156.67,-1334.23 152.83,-1334.23 149,-1330.4 149,-1326.57 149,-1326.57 149,-1318.9 149,-1318.9 149,-1315.07 152.83,-1311.23 156.67,-1311.23 156.67,-1311.23 206.33,-1311.23 206.33,-1311.23 210.17,-1311.23 214,-1315.07 214,-1318.9 214,-1318.9 214,-1326.57 214,-1326.57 214,-1330.4 210.17,-1334.23 206.33,-1334.23"/>
<text text-anchor="middle" x="181.5" y="-1319.03" font-family="Arial" font-size="14.00" fill="#cfffac">App.css</text>
</g>
<!-- App.tsx -->
<g id="node2" class="node">
<title>App.tsx</title>
<path fill="none" stroke="#c6c5fe" d="M54.33,-805.23C54.33,-805.23 7.67,-805.23 7.67,-805.23 3.83,-805.23 0,-801.4 0,-797.57 0,-797.57 0,-789.9 0,-789.9 0,-786.07 3.83,-782.23 7.67,-782.23 7.67,-782.23 54.33,-782.23 54.33,-782.23 58.17,-782.23 62,-786.07 62,-789.9 62,-789.9 62,-797.57 62,-797.57 62,-801.4 58.17,-805.23 54.33,-805.23"/>
<text text-anchor="middle" x="31" y="-790.03" font-family="Arial" font-size="14.00" fill="#c6c5fe">App.tsx</text>
</g>
<!-- App.tsx&#45;&gt;App.css -->
<g id="edge1" class="edge">
<title>App.tsx&#45;&gt;App.css</title>
<path fill="none" stroke="#757575" d="M31.89,-805.4C31.5,-873.46 32.76,-1218.97 98,-1296.73 108.12,-1308.79 123.78,-1315.34 138.75,-1318.86"/>
<polygon fill="#757575" stroke="#757575" points="138.44,-1322.36 148.93,-1320.84 139.78,-1315.49 138.44,-1322.36"/>
</g>
<!-- AuthenticatedContent.tsx -->
<g id="node3" class="node">
<title>AuthenticatedContent.tsx</title>
<path fill="none" stroke="#c6c5fe" d="M257.33,-1175.23C257.33,-1175.23 105.67,-1175.23 105.67,-1175.23 101.83,-1175.23 98,-1171.4 98,-1167.57 98,-1167.57 98,-1159.9 98,-1159.9 98,-1156.07 101.83,-1152.23 105.67,-1152.23 105.67,-1152.23 257.33,-1152.23 257.33,-1152.23 261.17,-1152.23 265,-1156.07 265,-1159.9 265,-1159.9 265,-1167.57 265,-1167.57 265,-1171.4 261.17,-1175.23 257.33,-1175.23"/>
<text text-anchor="middle" x="181.5" y="-1160.03" font-family="Arial" font-size="14.00" fill="#c6c5fe">AuthenticatedContent.tsx</text>
</g>
<!-- App.tsx&#45;&gt;AuthenticatedContent.tsx -->
<g id="edge2" class="edge">
<title>App.tsx&#45;&gt;AuthenticatedContent.tsx</title>
<path fill="none" stroke="#757575" d="M36.77,-805.63C58.07,-858.69 144.57,-1074.22 172.07,-1142.73"/>
<polygon fill="#757575" stroke="#757575" points="168.85,-1144.09 175.82,-1152.07 175.34,-1141.49 168.85,-1144.09"/>
</g>
<!-- components/Header.tsx -->
<g id="node4" class="node">
<title>components/Header.tsx</title>
<path fill="none" stroke="#c6c5fe" d="M1545.83,-1296.23C1545.83,-1296.23 1402.17,-1296.23 1402.17,-1296.23 1398.33,-1296.23 1394.5,-1292.4 1394.5,-1288.57 1394.5,-1288.57 1394.5,-1280.9 1394.5,-1280.9 1394.5,-1277.07 1398.33,-1273.23 1402.17,-1273.23 1402.17,-1273.23 1545.83,-1273.23 1545.83,-1273.23 1549.67,-1273.23 1553.5,-1277.07 1553.5,-1280.9 1553.5,-1280.9 1553.5,-1288.57 1553.5,-1288.57 1553.5,-1292.4 1549.67,-1296.23 1545.83,-1296.23"/>
<text text-anchor="middle" x="1474" y="-1281.03" font-family="Arial" font-size="14.00" fill="#c6c5fe">components/Header.tsx</text>
</g>
<!-- App.tsx&#45;&gt;components/Header.tsx -->
<g id="edge3" class="edge">
<title>App.tsx&#45;&gt;components/Header.tsx</title>
<path fill="none" stroke="#757575" d="M32.43,-805.3C34.83,-863.49 48.25,-1123.73 98,-1183.73 180.78,-1283.57 242.81,-1282.73 372.5,-1282.73 372.5,-1282.73 372.5,-1282.73 860.5,-1282.73 1046.74,-1282.73 1264.84,-1283.67 1384.03,-1284.26"/>
<polygon fill="#757575" stroke="#757575" points="1384.18,-1287.76 1394.2,-1284.31 1384.22,-1280.76 1384.18,-1287.76"/>
</g>
<!-- pages/Contact.tsx -->
<g id="node5" class="node">
<title>pages/Contact.tsx</title>
<path fill="none" stroke="#c6c5fe" d="M1528.83,-161.23C1528.83,-161.23 1419.17,-161.23 1419.17,-161.23 1415.33,-161.23 1411.5,-157.4 1411.5,-153.57 1411.5,-153.57 1411.5,-145.9 1411.5,-145.9 1411.5,-142.07 1415.33,-138.23 1419.17,-138.23 1419.17,-138.23 1528.83,-138.23 1528.83,-138.23 1532.67,-138.23 1536.5,-142.07 1536.5,-145.9 1536.5,-145.9 1536.5,-153.57 1536.5,-153.57 1536.5,-157.4 1532.67,-161.23 1528.83,-161.23"/>
<text text-anchor="middle" x="1474" y="-146.03" font-family="Arial" font-size="14.00" fill="#c6c5fe">pages/Contact.tsx</text>
</g>
<!-- App.tsx&#45;&gt;pages/Contact.tsx -->
<g id="edge4" class="edge">
<title>App.tsx&#45;&gt;pages/Contact.tsx</title>
<path fill="none" stroke="#757575" d="M32.48,-782.04C36.76,-695.03 75.38,-151.73 372.5,-151.73 372.5,-151.73 372.5,-151.73 860.5,-151.73 1056.11,-151.73 1286.85,-150.7 1401.24,-150.12"/>
<polygon fill="#757575" stroke="#757575" points="1401.29,-153.62 1411.27,-150.07 1401.26,-146.62 1401.29,-153.62"/>
</g>
<!-- pages/Privacy.tsx -->
<g id="node6" class="node">
<title>pages/Privacy.tsx</title>
<path fill="none" stroke="#cfffac" d="M234.83,-123.23C234.83,-123.23 128.17,-123.23 128.17,-123.23 124.33,-123.23 120.5,-119.4 120.5,-115.57 120.5,-115.57 120.5,-107.9 120.5,-107.9 120.5,-104.07 124.33,-100.23 128.17,-100.23 128.17,-100.23 234.83,-100.23 234.83,-100.23 238.67,-100.23 242.5,-104.07 242.5,-107.9 242.5,-107.9 242.5,-115.57 242.5,-115.57 242.5,-119.4 238.67,-123.23 234.83,-123.23"/>
<text text-anchor="middle" x="181.5" y="-108.03" font-family="Arial" font-size="14.00" fill="#cfffac">pages/Privacy.tsx</text>
</g>
<!-- App.tsx&#45;&gt;pages/Privacy.tsx -->
<g id="edge5" class="edge">
<title>App.tsx&#45;&gt;pages/Privacy.tsx</title>
<path fill="none" stroke="#757575" d="M32.41,-782C35.46,-698 55.61,-189.85 98,-137.73 101.76,-133.11 106.35,-129.29 111.4,-126.14"/>
<polygon fill="#757575" stroke="#757575" points="113.08,-129.21 120.3,-121.45 109.82,-123.02 113.08,-129.21"/>
</g>
<!-- pages/TodoInfo.tsx -->
<g id="node7" class="node">
<title>pages/TodoInfo.tsx</title>
<path fill="none" stroke="#c6c5fe" d="M1214.33,-435.23C1214.33,-435.23 1099.67,-435.23 1099.67,-435.23 1095.83,-435.23 1092,-431.4 1092,-427.57 1092,-427.57 1092,-419.9 1092,-419.9 1092,-416.07 1095.83,-412.23 1099.67,-412.23 1099.67,-412.23 1214.33,-412.23 1214.33,-412.23 1218.17,-412.23 1222,-416.07 1222,-419.9 1222,-419.9 1222,-427.57 1222,-427.57 1222,-431.4 1218.17,-435.23 1214.33,-435.23"/>
<text text-anchor="middle" x="1157" y="-420.03" font-family="Arial" font-size="14.00" fill="#c6c5fe">pages/TodoInfo.tsx</text>
</g>
<!-- App.tsx&#45;&gt;pages/TodoInfo.tsx -->
<g id="edge6" class="edge">
<title>App.tsx&#45;&gt;pages/TodoInfo.tsx</title>
<path fill="none" stroke="#757575" d="M38.66,-781.96C69.31,-729.51 202.53,-519.73 372.5,-519.73 372.5,-519.73 372.5,-519.73 594,-519.73 642.43,-519.73 945.32,-463.62 1085.26,-437.19"/>
<polygon fill="#757575" stroke="#757575" points="1086.28,-440.56 1095.46,-435.27 1084.98,-433.68 1086.28,-440.56"/>
</g>
<!-- components/Register.tsx -->
<g id="node8" class="node">
<title>components/Register.tsx</title>
<path fill="none" stroke="#c6c5fe" d="M1548.83,-1175.23C1548.83,-1175.23 1399.17,-1175.23 1399.17,-1175.23 1395.33,-1175.23 1391.5,-1171.4 1391.5,-1167.57 1391.5,-1167.57 1391.5,-1159.9 1391.5,-1159.9 1391.5,-1156.07 1395.33,-1152.23 1399.17,-1152.23 1399.17,-1152.23 1548.83,-1152.23 1548.83,-1152.23 1552.67,-1152.23 1556.5,-1156.07 1556.5,-1159.9 1556.5,-1159.9 1556.5,-1167.57 1556.5,-1167.57 1556.5,-1171.4 1552.67,-1175.23 1548.83,-1175.23"/>
<text text-anchor="middle" x="1474" y="-1160.03" font-family="Arial" font-size="14.00" fill="#c6c5fe">components/Register.tsx</text>
</g>
<!-- AuthenticatedContent.tsx&#45;&gt;components/Register.tsx -->
<g id="edge7" class="edge">
<title>AuthenticatedContent.tsx&#45;&gt;components/Register.tsx</title>
<path fill="none" stroke="#757575" d="M265.25,-1163.73C347.96,-1163.73 478.78,-1163.73 592,-1163.73 592,-1163.73 592,-1163.73 860.5,-1163.73 1045.19,-1163.73 1261.22,-1163.73 1381.04,-1163.73"/>
<polygon fill="#757575" stroke="#757575" points="1381.27,-1167.23 1391.27,-1163.73 1381.27,-1160.23 1381.27,-1167.23"/>
</g>
<!-- components/SignIn.tsx -->
<g id="node9" class="node">
<title>components/SignIn.tsx</title>
<path fill="none" stroke="#c6c5fe" d="M1543.33,-1216.23C1543.33,-1216.23 1404.67,-1216.23 1404.67,-1216.23 1400.83,-1216.23 1397,-1212.4 1397,-1208.57 1397,-1208.57 1397,-1200.9 1397,-1200.9 1397,-1197.07 1400.83,-1193.23 1404.67,-1193.23 1404.67,-1193.23 1543.33,-1193.23 1543.33,-1193.23 1547.17,-1193.23 1551,-1197.07 1551,-1200.9 1551,-1200.9 1551,-1208.57 1551,-1208.57 1551,-1212.4 1547.17,-1216.23 1543.33,-1216.23"/>
<text text-anchor="middle" x="1474" y="-1201.03" font-family="Arial" font-size="14.00" fill="#c6c5fe">components/SignIn.tsx</text>
</g>
<!-- AuthenticatedContent.tsx&#45;&gt;components/SignIn.tsx -->
<g id="edge8" class="edge">
<title>AuthenticatedContent.tsx&#45;&gt;components/SignIn.tsx</title>
<path fill="none" stroke="#757575" d="M255.89,-1175.25C337.68,-1187.07 473.96,-1203.73 592,-1203.73 592,-1203.73 592,-1203.73 860.5,-1203.73 1048.04,-1203.73 1267.87,-1204.21 1386.5,-1204.5"/>
<polygon fill="#757575" stroke="#757575" points="1386.6,-1208 1396.61,-1204.53 1386.62,-1201 1386.6,-1208"/>
</g>
<!-- components/Todo.tsx -->
<g id="node10" class="node">
<title>components/Todo.tsx</title>
<path fill="none" stroke="#c6c5fe" d="M438.33,-725.23C438.33,-725.23 308.67,-725.23 308.67,-725.23 304.83,-725.23 301,-721.4 301,-717.57 301,-717.57 301,-709.9 301,-709.9 301,-706.07 304.83,-702.23 308.67,-702.23 308.67,-702.23 438.33,-702.23 438.33,-702.23 442.17,-702.23 446,-706.07 446,-709.9 446,-709.9 446,-717.57 446,-717.57 446,-721.4 442.17,-725.23 438.33,-725.23"/>
<text text-anchor="middle" x="373.5" y="-710.03" font-family="Arial" font-size="14.00" fill="#c6c5fe">components/Todo.tsx</text>
</g>
<!-- AuthenticatedContent.tsx&#45;&gt;components/Todo.tsx -->
<g id="edge9" class="edge">
<title>AuthenticatedContent.tsx&#45;&gt;components/Todo.tsx</title>
<path fill="none" stroke="#757575" d="M187.39,-1152.16C212.79,-1091.99 329.87,-814.7 363.47,-735.13"/>
<polygon fill="#757575" stroke="#757575" points="366.8,-736.22 367.47,-725.65 360.36,-733.5 366.8,-736.22"/>
</g>
<!-- libs/firebase.tsx -->
<g id="node11" class="node">
<title>libs/firebase.tsx</title>
<path fill="none" stroke="#cfffac" d="M2232.33,-1216.23C2232.33,-1216.23 2137.67,-1216.23 2137.67,-1216.23 2133.83,-1216.23 2130,-1212.4 2130,-1208.57 2130,-1208.57 2130,-1200.9 2130,-1200.9 2130,-1197.07 2133.83,-1193.23 2137.67,-1193.23 2137.67,-1193.23 2232.33,-1193.23 2232.33,-1193.23 2236.17,-1193.23 2240,-1197.07 2240,-1200.9 2240,-1200.9 2240,-1208.57 2240,-1208.57 2240,-1212.4 2236.17,-1216.23 2232.33,-1216.23"/>
<text text-anchor="middle" x="2185" y="-1201.03" font-family="Arial" font-size="14.00" fill="#cfffac">libs/firebase.tsx</text>
</g>
<!-- AuthenticatedContent.tsx&#45;&gt;libs/firebase.tsx -->
<g id="edge10" class="edge">
<title>AuthenticatedContent.tsx&#45;&gt;libs/firebase.tsx</title>
<path fill="none" stroke="#757575" d="M252.87,-1175.28C257.03,-1176.61 261.1,-1178.09 265,-1179.73 282.95,-1187.31 282.85,-1197.66 301,-1204.73 422.63,-1252.16 461.45,-1244.73 592,-1244.73 592,-1244.73 592,-1244.73 1798.5,-1244.73 1912.16,-1244.73 2043.66,-1227.32 2119.98,-1215.47"/>
<polygon fill="#757575" stroke="#757575" points="2120.58,-1218.92 2129.92,-1213.91 2119.5,-1212 2120.58,-1218.92"/>
</g>
<!-- components/Header.tsx&#45;&gt;libs/firebase.tsx -->
<g id="edge11" class="edge">
<title>components/Header.tsx&#45;&gt;libs/firebase.tsx</title>
<path fill="none" stroke="#757575" d="M1553.75,-1293.61C1673.37,-1304.4 1906.74,-1314.86 2094,-1258.73 2118.97,-1251.25 2144.14,-1235.27 2161.49,-1222.62"/>
<polygon fill="#757575" stroke="#757575" points="2163.91,-1225.18 2169.8,-1216.37 2159.7,-1219.58 2163.91,-1225.18"/>
</g>
<!-- model/Utils.tsx -->
<g id="node12" class="node">
<title>model/Utils.tsx</title>
<path fill="none" stroke="#c6c5fe" d="M1842.33,-864.23C1842.33,-864.23 1752.67,-864.23 1752.67,-864.23 1748.83,-864.23 1745,-860.4 1745,-856.57 1745,-856.57 1745,-848.9 1745,-848.9 1745,-845.07 1748.83,-841.23 1752.67,-841.23 1752.67,-841.23 1842.33,-841.23 1842.33,-841.23 1846.17,-841.23 1850,-845.07 1850,-848.9 1850,-848.9 1850,-856.57 1850,-856.57 1850,-860.4 1846.17,-864.23 1842.33,-864.23"/>
<text text-anchor="middle" x="1797.5" y="-849.03" font-family="Arial" font-size="14.00" fill="#c6c5fe">model/Utils.tsx</text>
</g>
<!-- components/Header.tsx&#45;&gt;model/Utils.tsx -->
<g id="edge12" class="edge">
<title>components/Header.tsx&#45;&gt;model/Utils.tsx</title>
<path fill="none" stroke="#757575" d="M1522.21,-1273.19C1551.31,-1264.08 1587.75,-1248.79 1613,-1224.73 1722.42,-1120.45 1775.77,-937.1 1791.44,-874.44"/>
<polygon fill="#757575" stroke="#757575" points="1794.89,-875.04 1793.85,-864.5 1788.09,-873.39 1794.89,-875.04"/>
</g>
<!-- pages/Contact.tsx&#45;&gt;model/Utils.tsx -->
<g id="edge70" class="edge">
<title>pages/Contact.tsx&#45;&gt;model/Utils.tsx</title>
<path fill="none" stroke="#757575" d="M1536.4,-161.3C1564.13,-169.75 1594.7,-184.19 1613,-208.73 1654.85,-264.86 1630.54,-454.2 1649,-521.73 1682.75,-645.19 1756.01,-781.46 1784.67,-832.22"/>
<polygon fill="#757575" stroke="#757575" points="1781.79,-834.24 1789.78,-841.2 1787.87,-830.77 1781.79,-834.24"/>
</g>
<!-- config.ts -->
<g id="node13" class="node">
<title>config.ts</title>
<path fill="none" stroke="#cfffac" d="M1823.33,-513.23C1823.33,-513.23 1771.67,-513.23 1771.67,-513.23 1767.83,-513.23 1764,-509.4 1764,-505.57 1764,-505.57 1764,-497.9 1764,-497.9 1764,-494.07 1767.83,-490.23 1771.67,-490.23 1771.67,-490.23 1823.33,-490.23 1823.33,-490.23 1827.17,-490.23 1831,-494.07 1831,-497.9 1831,-497.9 1831,-505.57 1831,-505.57 1831,-509.4 1827.17,-513.23 1823.33,-513.23"/>
<text text-anchor="middle" x="1797.5" y="-498.03" font-family="Arial" font-size="14.00" fill="#cfffac">config.ts</text>
</g>
<!-- pages/Contact.tsx&#45;&gt;config.ts -->
<g id="edge69" class="edge">
<title>pages/Contact.tsx&#45;&gt;config.ts</title>
<path fill="none" stroke="#757575" d="M1519.79,-161.29C1548.81,-170.49 1586.07,-185.7 1613,-208.73 1661.06,-249.85 1754.37,-421.87 1785.84,-481.37"/>
<polygon fill="#757575" stroke="#757575" points="1782.74,-483.01 1790.5,-490.22 1788.94,-479.75 1782.74,-483.01"/>
</g>
<!-- components/styles/ButtonStyles.tsx -->
<g id="node15" class="node">
<title>components/styles/ButtonStyles.tsx</title>
<path fill="none" stroke="#cfffac" d="M1904.83,-241.23C1904.83,-241.23 1690.17,-241.23 1690.17,-241.23 1686.33,-241.23 1682.5,-237.4 1682.5,-233.57 1682.5,-233.57 1682.5,-225.9 1682.5,-225.9 1682.5,-222.07 1686.33,-218.23 1690.17,-218.23 1690.17,-218.23 1904.83,-218.23 1904.83,-218.23 1908.67,-218.23 1912.5,-222.07 1912.5,-225.9 1912.5,-225.9 1912.5,-233.57 1912.5,-233.57 1912.5,-237.4 1908.67,-241.23 1904.83,-241.23"/>
<text text-anchor="middle" x="1797.5" y="-226.03" font-family="Arial" font-size="14.00" fill="#cfffac">components/styles/ButtonStyles.tsx</text>
</g>
<!-- pages/Contact.tsx&#45;&gt;components/styles/ButtonStyles.tsx -->
<g id="edge68" class="edge">
<title>pages/Contact.tsx&#45;&gt;components/styles/ButtonStyles.tsx</title>
<path fill="none" stroke="#757575" d="M1536.66,-155.01C1561.21,-158.71 1589.22,-165.01 1613,-175.73 1631.48,-184.07 1630.47,-195.51 1649,-203.73 1659.86,-208.56 1671.55,-212.48 1683.41,-215.68"/>
<polygon fill="#757575" stroke="#757575" points="1682.86,-219.15 1693.41,-218.21 1684.57,-212.37 1682.86,-219.15"/>
</g>
<!-- components/button/ContactCategoryButton.tsx -->
<g id="node20" class="node">
<title>components/button/ContactCategoryButton.tsx</title>
<path fill="none" stroke="#cfffac" d="M1938.33,-161.23C1938.33,-161.23 1656.67,-161.23 1656.67,-161.23 1652.83,-161.23 1649,-157.4 1649,-153.57 1649,-153.57 1649,-145.9 1649,-145.9 1649,-142.07 1652.83,-138.23 1656.67,-138.23 1656.67,-138.23 1938.33,-138.23 1938.33,-138.23 1942.17,-138.23 1946,-142.07 1946,-145.9 1946,-145.9 1946,-153.57 1946,-153.57 1946,-157.4 1942.17,-161.23 1938.33,-161.23"/>
<text text-anchor="middle" x="1797.5" y="-146.03" font-family="Arial" font-size="14.00" fill="#cfffac">components/button/ContactCategoryButton.tsx</text>
</g>
<!-- pages/Contact.tsx&#45;&gt;components/button/ContactCategoryButton.tsx -->
<g id="edge67" class="edge">
<title>pages/Contact.tsx&#45;&gt;components/button/ContactCategoryButton.tsx</title>
<path fill="none" stroke="#757575" d="M1536.61,-149.73C1565.86,-149.73 1602.29,-149.73 1638.54,-149.73"/>
<polygon fill="#757575" stroke="#757575" points="1638.75,-153.23 1648.75,-149.73 1638.75,-146.23 1638.75,-153.23"/>
</g>
<!-- model/token.tsx -->
<g id="node26" class="node">
<title>model/token.tsx</title>
<path fill="none" stroke="#c6c5fe" d="M2086.33,-627.23C2086.33,-627.23 1989.67,-627.23 1989.67,-627.23 1985.83,-627.23 1982,-623.4 1982,-619.57 1982,-619.57 1982,-611.9 1982,-611.9 1982,-608.07 1985.83,-604.23 1989.67,-604.23 1989.67,-604.23 2086.33,-604.23 2086.33,-604.23 2090.17,-604.23 2094,-608.07 2094,-611.9 2094,-611.9 2094,-619.57 2094,-619.57 2094,-623.4 2090.17,-627.23 2086.33,-627.23"/>
<text text-anchor="middle" x="2038" y="-612.03" font-family="Arial" font-size="14.00" fill="#c6c5fe">model/token.tsx</text>
</g>
<!-- pages/Contact.tsx&#45;&gt;model/token.tsx -->
<g id="edge71" class="edge">
<title>pages/Contact.tsx&#45;&gt;model/token.tsx</title>
<path fill="none" stroke="#757575" d="M1536.96,-157.03C1663.95,-172.05 1942.24,-205.31 1946,-208.73 2004.1,-261.54 2029.07,-516.96 2035.34,-593.81"/>
<polygon fill="#757575" stroke="#757575" points="2031.89,-594.49 2036.16,-604.18 2038.86,-593.94 2031.89,-594.49"/>
</g>
<!-- pages/TodoInfo.tsx&#45;&gt;model/Utils.tsx -->
<g id="edge75" class="edge">
<title>pages/TodoInfo.tsx&#45;&gt;model/Utils.tsx</title>
<path fill="none" stroke="#757575" d="M1170.93,-435.56C1198.45,-461.42 1263.24,-526.06 1299,-592.73 1325.52,-642.18 1292.15,-677.52 1335,-713.73 1382.54,-753.91 1553.94,-728.11 1613,-747.73 1675.03,-768.34 1739.56,-811.09 1773.09,-835.2"/>
<polygon fill="#757575" stroke="#757575" points="1771.17,-838.13 1781.31,-841.19 1775.29,-832.47 1771.17,-838.13"/>
</g>
<!-- pages/TodoInfo.tsx&#45;&gt;config.ts -->
<g id="edge74" class="edge">
<title>pages/TodoInfo.tsx&#45;&gt;config.ts</title>
<path fill="none" stroke="#757575" d="M1222.29,-420.46C1310.98,-417.22 1475.52,-415.84 1613,-440.73 1665.54,-450.25 1723.62,-471.49 1760.08,-486.21"/>
<polygon fill="#757575" stroke="#757575" points="1759.19,-489.62 1769.77,-490.17 1761.84,-483.14 1759.19,-489.62"/>
</g>
<!-- components/form/CommentForm.tsx -->
<g id="node25" class="node">
<title>components/form/CommentForm.tsx</title>
<path fill="none" stroke="#c6c5fe" d="M1585.83,-473.23C1585.83,-473.23 1362.17,-473.23 1362.17,-473.23 1358.33,-473.23 1354.5,-469.4 1354.5,-465.57 1354.5,-465.57 1354.5,-457.9 1354.5,-457.9 1354.5,-454.07 1358.33,-450.23 1362.17,-450.23 1362.17,-450.23 1585.83,-450.23 1585.83,-450.23 1589.67,-450.23 1593.5,-454.07 1593.5,-457.9 1593.5,-457.9 1593.5,-465.57 1593.5,-465.57 1593.5,-469.4 1589.67,-473.23 1585.83,-473.23"/>
<text text-anchor="middle" x="1474" y="-458.03" font-family="Arial" font-size="14.00" fill="#c6c5fe">components/form/CommentForm.tsx</text>
</g>
<!-- pages/TodoInfo.tsx&#45;&gt;components/form/CommentForm.tsx -->
<g id="edge72" class="edge">
<title>pages/TodoInfo.tsx&#45;&gt;components/form/CommentForm.tsx</title>
<path fill="none" stroke="#757575" d="M1222.12,-431.47C1263.86,-436.5 1319.28,-443.19 1367.42,-449"/>
<polygon fill="#757575" stroke="#757575" points="1367.22,-452.5 1377.57,-450.22 1368.06,-445.55 1367.22,-452.5"/>
</g>
<!-- pages/TodoInfo.tsx&#45;&gt;model/token.tsx -->
<g id="edge76" class="edge">
<title>pages/TodoInfo.tsx&#45;&gt;model/token.tsx</title>
<path fill="none" stroke="#757575" d="M1175.93,-411.96C1206.31,-391.01 1267.66,-344.21 1299,-288.73 1334.85,-225.27 1278.08,-174.27 1335,-128.73 1547.05,40.91 1737.09,44.76 1946,-128.73 2018.98,-189.34 2033.76,-507.11 2036.45,-593.84"/>
<polygon fill="#757575" stroke="#757575" points="2032.96,-594.19 2036.74,-604.09 2039.95,-593.99 2032.96,-594.19"/>
</g>
<!-- components/hooks/useUpdateAddition.tsx -->
<g id="node30" class="node">
<title>components/hooks/useUpdateAddition.tsx</title>
<path fill="none" stroke="#c6c5fe" d="M1600.83,-705.23C1600.83,-705.23 1347.17,-705.23 1347.17,-705.23 1343.33,-705.23 1339.5,-701.4 1339.5,-697.57 1339.5,-697.57 1339.5,-689.9 1339.5,-689.9 1339.5,-686.07 1343.33,-682.23 1347.17,-682.23 1347.17,-682.23 1600.83,-682.23 1600.83,-682.23 1604.67,-682.23 1608.5,-686.07 1608.5,-689.9 1608.5,-689.9 1608.5,-697.57 1608.5,-697.57 1608.5,-701.4 1604.67,-705.23 1600.83,-705.23"/>
<text text-anchor="middle" x="1474" y="-690.03" font-family="Arial" font-size="14.00" fill="#c6c5fe">components/hooks/useUpdateAddition.tsx</text>
</g>
<!-- pages/TodoInfo.tsx&#45;&gt;components/hooks/useUpdateAddition.tsx -->
<g id="edge73" class="edge">
<title>pages/TodoInfo.tsx&#45;&gt;components/hooks/useUpdateAddition.tsx</title>
<path fill="none" stroke="#757575" d="M1169.15,-435.25C1196.42,-463.21 1269.1,-536.46 1335,-591.73 1372.69,-623.35 1419.18,-656.62 1447.43,-676.25"/>
<polygon fill="#757575" stroke="#757575" points="1445.71,-679.32 1455.93,-682.13 1449.69,-673.56 1445.71,-679.32"/>
</g>
<!-- components/Register.tsx&#45;&gt;libs/firebase.tsx -->
<g id="edge14" class="edge">
<title>components/Register.tsx&#45;&gt;libs/firebase.tsx</title>
<path fill="none" stroke="#757575" d="M1556.68,-1168.46C1699.2,-1176.7 1990.42,-1193.54 2119.7,-1201.02"/>
<polygon fill="#757575" stroke="#757575" points="2119.66,-1204.52 2129.84,-1201.6 2120.06,-1197.53 2119.66,-1204.52"/>
</g>
<!-- components/Register.tsx&#45;&gt;model/Utils.tsx -->
<g id="edge15" class="edge">
<title>components/Register.tsx&#45;&gt;model/Utils.tsx</title>
<path fill="none" stroke="#757575" d="M1512.37,-1152.13C1541.86,-1141.7 1582.89,-1124.24 1613,-1099.73 1695.8,-1032.35 1761.15,-919.66 1785.84,-873.45"/>
<polygon fill="#757575" stroke="#757575" points="1789.04,-874.88 1790.6,-864.4 1782.85,-871.62 1789.04,-874.88"/>
</g>
<!-- components/Register.tsx&#45;&gt;config.ts -->
<g id="edge13" class="edge">
<title>components/Register.tsx&#45;&gt;config.ts</title>
<path fill="none" stroke="#757575" d="M1487.09,-1152.04C1514.06,-1125.26 1579.37,-1056.34 1613,-985.73 1643.23,-922.28 1626.56,-898.34 1649,-831.73 1689.76,-710.75 1758.89,-573.65 1785.55,-522.46"/>
<polygon fill="#757575" stroke="#757575" points="1788.76,-523.87 1790.3,-513.39 1782.56,-520.63 1788.76,-523.87"/>
</g>
<!-- components/SignIn.tsx&#45;&gt;libs/firebase.tsx -->
<g id="edge16" class="edge">
<title>components/SignIn.tsx&#45;&gt;libs/firebase.tsx</title>
<path fill="none" stroke="#757575" d="M1551.21,-1204.73C1691.55,-1204.73 1988.43,-1204.73 2119.49,-1204.73"/>
<polygon fill="#757575" stroke="#757575" points="2119.77,-1208.23 2129.77,-1204.73 2119.77,-1201.23 2119.77,-1208.23"/>
</g>
<!-- components/SignIn.tsx&#45;&gt;model/Utils.tsx -->
<g id="edge17" class="edge">
<title>components/SignIn.tsx&#45;&gt;model/Utils.tsx</title>
<path fill="none" stroke="#757575" d="M1551.24,-1205.41C1572.72,-1202.48 1595.1,-1196.19 1613,-1183.73 1725.73,-1105.32 1776.7,-934.33 1791.61,-874.18"/>
<polygon fill="#757575" stroke="#757575" points="1795.06,-874.83 1793.99,-864.29 1788.25,-873.2 1795.06,-874.83"/>
</g>
<!-- components/form/TodoInputForm.tsx -->
<g id="node14" class="node">
<title>components/form/TodoInputForm.tsx</title>
<path fill="none" stroke="#c6c5fe" d="M971.33,-1058.23C971.33,-1058.23 747.67,-1058.23 747.67,-1058.23 743.83,-1058.23 740,-1054.4 740,-1050.57 740,-1050.57 740,-1042.9 740,-1042.9 740,-1039.07 743.83,-1035.23 747.67,-1035.23 747.67,-1035.23 971.33,-1035.23 971.33,-1035.23 975.17,-1035.23 979,-1039.07 979,-1042.9 979,-1042.9 979,-1050.57 979,-1050.57 979,-1054.4 975.17,-1058.23 971.33,-1058.23"/>
<text text-anchor="middle" x="859.5" y="-1043.03" font-family="Arial" font-size="14.00" fill="#c6c5fe">components/form/TodoInputForm.tsx</text>
</g>
<!-- components/Todo.tsx&#45;&gt;components/form/TodoInputForm.tsx -->
<g id="edge18" class="edge">
<title>components/Todo.tsx&#45;&gt;components/form/TodoInputForm.tsx</title>
<path fill="none" stroke="#757575" d="M384.45,-725.46C424.06,-771.37 576.42,-940.24 740,-1020.73 749.55,-1025.43 759.95,-1029.29 770.48,-1032.45"/>
<polygon fill="#757575" stroke="#757575" points="769.61,-1035.84 780.18,-1035.17 771.49,-1029.1 769.61,-1035.84"/>
</g>
<!-- components/Todo.tsx&#45;&gt;components/styles/ButtonStyles.tsx -->
<g id="edge19" class="edge">
<title>components/Todo.tsx&#45;&gt;components/styles/ButtonStyles.tsx</title>
<path fill="none" stroke="#757575" d="M376.1,-702.11C384.51,-642.48 425.42,-371.33 482,-311.73 603.1,-184.16 682.6,-189.73 858.5,-189.73 858.5,-189.73 858.5,-189.73 1158,-189.73 1360.4,-189.73 1411.21,-192.99 1613,-208.73 1640.21,-210.86 1669.62,-213.89 1696.75,-216.99"/>
<polygon fill="#757575" stroke="#757575" points="1696.69,-220.51 1707.03,-218.18 1697.49,-213.56 1696.69,-220.51"/>
</g>
<!-- components/template/TodoList.tsx -->
<g id="node16" class="node">
<title>components/template/TodoList.tsx</title>
<path fill="none" stroke="#c6c5fe" d="M696.33,-725.23C696.33,-725.23 489.67,-725.23 489.67,-725.23 485.83,-725.23 482,-721.4 482,-717.57 482,-717.57 482,-709.9 482,-709.9 482,-706.07 485.83,-702.23 489.67,-702.23 489.67,-702.23 696.33,-702.23 696.33,-702.23 700.17,-702.23 704,-706.07 704,-709.9 704,-709.9 704,-717.57 704,-717.57 704,-721.4 700.17,-725.23 696.33,-725.23"/>
<text text-anchor="middle" x="593" y="-710.03" font-family="Arial" font-size="14.00" fill="#c6c5fe">components/template/TodoList.tsx</text>
</g>
<!-- components/Todo.tsx&#45;&gt;components/template/TodoList.tsx -->
<g id="edge20" class="edge">
<title>components/Todo.tsx&#45;&gt;components/template/TodoList.tsx</title>
<path fill="none" stroke="#757575" d="M446.02,-713.73C454.3,-713.73 462.9,-713.73 471.6,-713.73"/>
<polygon fill="#757575" stroke="#757575" points="471.85,-717.23 481.85,-713.73 471.85,-710.23 471.85,-717.23"/>
</g>
<!-- components/template/WeeklyCalender.tsx -->
<g id="node17" class="node">
<title>components/template/WeeklyCalender.tsx</title>
<path fill="none" stroke="#c6c5fe" d="M1284.33,-280.23C1284.33,-280.23 1029.67,-280.23 1029.67,-280.23 1025.83,-280.23 1022,-276.4 1022,-272.57 1022,-272.57 1022,-264.9 1022,-264.9 1022,-261.07 1025.83,-257.23 1029.67,-257.23 1029.67,-257.23 1284.33,-257.23 1284.33,-257.23 1288.17,-257.23 1292,-261.07 1292,-264.9 1292,-264.9 1292,-272.57 1292,-272.57 1292,-276.4 1288.17,-280.23 1284.33,-280.23"/>
<text text-anchor="middle" x="1157" y="-265.03" font-family="Arial" font-size="14.00" fill="#c6c5fe">components/template/WeeklyCalender.tsx</text>
</g>
<!-- components/Todo.tsx&#45;&gt;components/template/WeeklyCalender.tsx -->
<g id="edge21" class="edge">
<title>components/Todo.tsx&#45;&gt;components/template/WeeklyCalender.tsx</title>
<path fill="none" stroke="#757575" d="M380.13,-702.18C408.69,-645.01 543.89,-391.4 740,-294.73 846.3,-242.34 986.83,-246.34 1074.3,-256.02"/>
<polygon fill="#757575" stroke="#757575" points="1074.1,-259.52 1084.44,-257.2 1074.91,-252.57 1074.1,-259.52"/>
</g>
<!-- model/Utils.tsx&#45;&gt;model/token.tsx -->
<g id="edge65" class="edge">
<title>model/Utils.tsx&#45;&gt;model/token.tsx</title>
<path fill="none" stroke="#757575" d="M1810.37,-841.02C1835.46,-816.27 1895.68,-756.8 1946,-706.73 1971.08,-681.78 1999.96,-652.87 2018.34,-634.45"/>
<polygon fill="#757575" stroke="#757575" points="2020.94,-636.8 2025.53,-627.24 2015.99,-631.85 2020.94,-636.8"/>
</g>
<!-- components/form/TodoInputForm.tsx&#45;&gt;model/Utils.tsx -->
<g id="edge30" class="edge">
<title>components/form/TodoInputForm.tsx&#45;&gt;model/Utils.tsx</title>
<path fill="none" stroke="#757575" d="M898.08,-1058.31C1012.2,-1091.25 1362.26,-1175.91 1613,-1059.73 1699.49,-1019.66 1762.17,-917.29 1785.97,-873.31"/>
<polygon fill="#757575" stroke="#757575" points="1789.11,-874.87 1790.7,-864.39 1782.93,-871.59 1789.11,-874.87"/>
</g>
<!-- model/TodoTypes.tsx -->
<g id="node19" class="node">
<title>model/TodoTypes.tsx</title>
<path fill="none" stroke="#cfffac" d="M1538.33,-823.23C1538.33,-823.23 1409.67,-823.23 1409.67,-823.23 1405.83,-823.23 1402,-819.4 1402,-815.57 1402,-815.57 1402,-807.9 1402,-807.9 1402,-804.07 1405.83,-800.23 1409.67,-800.23 1409.67,-800.23 1538.33,-800.23 1538.33,-800.23 1542.17,-800.23 1546,-804.07 1546,-807.9 1546,-807.9 1546,-815.57 1546,-815.57 1546,-819.4 1542.17,-823.23 1538.33,-823.23"/>
<text text-anchor="middle" x="1474" y="-808.03" font-family="Arial" font-size="14.00" fill="#cfffac">model/TodoTypes.tsx</text>
</g>
<!-- components/form/TodoInputForm.tsx&#45;&gt;model/TodoTypes.tsx -->
<g id="edge29" class="edge">
<title>components/form/TodoInputForm.tsx&#45;&gt;model/TodoTypes.tsx</title>
<path fill="none" stroke="#757575" d="M905.45,-1035.17C988.32,-1012.46 1168.64,-956.46 1299,-868.73 1318.03,-855.92 1314.56,-842.16 1335,-831.73 1352.36,-822.88 1372.44,-817.62 1391.81,-814.57"/>
<polygon fill="#757575" stroke="#757575" points="1392.44,-818.01 1401.86,-813.16 1391.48,-811.08 1392.44,-818.01"/>
</g>
<!-- components/hooks/usePostTodo.tsx -->
<g id="node28" class="node">
<title>components/hooks/usePostTodo.tsx</title>
<path fill="none" stroke="#c6c5fe" d="M1265.83,-1058.23C1265.83,-1058.23 1048.17,-1058.23 1048.17,-1058.23 1044.33,-1058.23 1040.5,-1054.4 1040.5,-1050.57 1040.5,-1050.57 1040.5,-1042.9 1040.5,-1042.9 1040.5,-1039.07 1044.33,-1035.23 1048.17,-1035.23 1048.17,-1035.23 1265.83,-1035.23 1265.83,-1035.23 1269.67,-1035.23 1273.5,-1039.07 1273.5,-1042.9 1273.5,-1042.9 1273.5,-1050.57 1273.5,-1050.57 1273.5,-1054.4 1269.67,-1058.23 1265.83,-1058.23"/>
<text text-anchor="middle" x="1157" y="-1043.03" font-family="Arial" font-size="14.00" fill="#c6c5fe">components/hooks/usePostTodo.tsx</text>
</g>
<!-- components/form/TodoInputForm.tsx&#45;&gt;components/hooks/usePostTodo.tsx -->
<g id="edge28" class="edge">
<title>components/form/TodoInputForm.tsx&#45;&gt;components/hooks/usePostTodo.tsx</title>
<path fill="none" stroke="#757575" d="M979.41,-1046.73C996.02,-1046.73 1013.12,-1046.73 1029.85,-1046.73"/>
<polygon fill="#757575" stroke="#757575" points="1030.21,-1050.23 1040.21,-1046.73 1030.21,-1043.23 1030.21,-1050.23"/>
</g>
<!-- components/template/TodoList.tsx&#45;&gt;model/Utils.tsx -->
<g id="edge59" class="edge">
<title>components/template/TodoList.tsx&#45;&gt;model/Utils.tsx</title>
<path fill="none" stroke="#757575" d="M608.23,-725.5C631.02,-744.96 676,-785.97 704,-828.73 726.7,-863.4 705.89,-891.2 740,-914.73 899.72,-1024.94 1446.14,-1033.79 1613,-934.73 1641.73,-917.68 1621.23,-887.32 1649,-868.73 1673.79,-852.15 1706.32,-847.29 1734.53,-846.95"/>
<polygon fill="#757575" stroke="#757575" points="1734.68,-850.45 1744.7,-847.01 1734.73,-843.45 1734.68,-850.45"/>
</g>
<!-- components/template/TodoList.tsx&#45;&gt;config.ts -->
<g id="edge57" class="edge">
<title>components/template/TodoList.tsx&#45;&gt;config.ts</title>
<path fill="none" stroke="#757575" d="M604.17,-702.07C647.51,-653.37 823.39,-465.83 1015,-402.73 1267.5,-319.58 1354.77,-352.59 1613,-415.73 1671.98,-430.16 1734.83,-464.22 1769.53,-484.88"/>
<polygon fill="#757575" stroke="#757575" points="1767.77,-487.91 1778.14,-490.08 1771.39,-481.91 1767.77,-487.91"/>
</g>
<!-- components/template/TodoList.tsx&#45;&gt;model/TodoTypes.tsx -->
<g id="edge58" class="edge">
<title>components/template/TodoList.tsx&#45;&gt;model/TodoTypes.tsx</title>
<path fill="none" stroke="#757575" d="M623.49,-725.33C691.29,-751.29 864.01,-813.47 1015,-834.73 1139.99,-852.34 1173.05,-843.02 1299,-834.73 1329.46,-832.73 1362.73,-828.77 1391.94,-824.7"/>
<polygon fill="#757575" stroke="#757575" points="1392.69,-828.12 1402.1,-823.25 1391.7,-821.19 1392.69,-828.12"/>
</g>
<!-- components/button/FilterButtons.tsx -->
<g id="node22" class="node">
<title>components/button/FilterButtons.tsx</title>
<path fill="none" stroke="#cfffac" d="M968.33,-906.23C968.33,-906.23 750.67,-906.23 750.67,-906.23 746.83,-906.23 743,-902.4 743,-898.57 743,-898.57 743,-890.9 743,-890.9 743,-887.07 746.83,-883.23 750.67,-883.23 750.67,-883.23 968.33,-883.23 968.33,-883.23 972.17,-883.23 976,-887.07 976,-890.9 976,-890.9 976,-898.57 976,-898.57 976,-902.4 972.17,-906.23 968.33,-906.23"/>
<text text-anchor="middle" x="859.5" y="-891.03" font-family="Arial" font-size="14.00" fill="#cfffac">components/button/FilterButtons.tsx</text>
</g>
<!-- components/template/TodoList.tsx&#45;&gt;components/button/FilterButtons.tsx -->
<g id="edge54" class="edge">
<title>components/template/TodoList.tsx&#45;&gt;components/button/FilterButtons.tsx</title>
<path fill="none" stroke="#757575" d="M601.22,-725.29C620.11,-754.45 674.07,-831.37 740,-868.73 748.01,-873.27 756.73,-877.02 765.7,-880.11"/>
<polygon fill="#757575" stroke="#757575" points="764.91,-883.53 775.5,-883.22 767.02,-876.86 764.91,-883.53"/>
</g>
<!-- components/template/TodoList.tsx&#45;&gt;model/token.tsx -->
<g id="edge60" class="edge">
<title>components/template/TodoList.tsx&#45;&gt;model/token.tsx</title>
<path fill="none" stroke="#757575" d="M595.97,-701.96C604.22,-656.66 640.25,-492.12 740,-412.73 838.11,-334.65 890.41,-363.82 1015,-349.73 1221.28,-326.41 1783.15,-297.99 1946,-426.73 2000.84,-470.09 2024.6,-554.69 2033.06,-594.3"/>
<polygon fill="#757575" stroke="#757575" points="2029.65,-595.1 2035.05,-604.21 2036.51,-593.72 2029.65,-595.1"/>
</g>
<!-- components/hooks/useGetTodos.tsx -->
<g id="node29" class="node">
<title>components/hooks/useGetTodos.tsx</title>
<path fill="none" stroke="#c6c5fe" d="M1267.33,-625.23C1267.33,-625.23 1046.67,-625.23 1046.67,-625.23 1042.83,-625.23 1039,-621.4 1039,-617.57 1039,-617.57 1039,-609.9 1039,-609.9 1039,-606.07 1042.83,-602.23 1046.67,-602.23 1046.67,-602.23 1267.33,-602.23 1267.33,-602.23 1271.17,-602.23 1275,-606.07 1275,-609.9 1275,-609.9 1275,-617.57 1275,-617.57 1275,-621.4 1271.17,-625.23 1267.33,-625.23"/>
<text text-anchor="middle" x="1157" y="-610.03" font-family="Arial" font-size="14.00" fill="#c6c5fe">components/hooks/useGetTodos.tsx</text>
</g>
<!-- components/template/TodoList.tsx&#45;&gt;components/hooks/useGetTodos.tsx -->
<g id="edge55" class="edge">
<title>components/template/TodoList.tsx&#45;&gt;components/hooks/useGetTodos.tsx</title>
<path fill="none" stroke="#757575" d="M658.74,-702.21C763.56,-683.56 969.86,-646.85 1080.94,-627.09"/>
<polygon fill="#757575" stroke="#757575" points="1081.83,-630.49 1091.06,-625.29 1080.6,-623.59 1081.83,-630.49"/>
</g>
<!-- components/template/TodoItem.tsx -->
<g id="node31" class="node">
<title>components/template/TodoItem.tsx</title>
<path fill="none" stroke="#c6c5fe" d="M965.83,-725.23C965.83,-725.23 753.17,-725.23 753.17,-725.23 749.33,-725.23 745.5,-721.4 745.5,-717.57 745.5,-717.57 745.5,-709.9 745.5,-709.9 745.5,-706.07 749.33,-702.23 753.17,-702.23 753.17,-702.23 965.83,-702.23 965.83,-702.23 969.67,-702.23 973.5,-706.07 973.5,-709.9 973.5,-709.9 973.5,-717.57 973.5,-717.57 973.5,-721.4 969.67,-725.23 965.83,-725.23"/>
<text text-anchor="middle" x="859.5" y="-710.03" font-family="Arial" font-size="14.00" fill="#c6c5fe">components/template/TodoItem.tsx</text>
</g>
<!-- components/template/TodoList.tsx&#45;&gt;components/template/TodoItem.tsx -->
<g id="edge56" class="edge">
<title>components/template/TodoList.tsx&#45;&gt;components/template/TodoItem.tsx</title>
<path fill="none" stroke="#757575" d="M704.26,-713.73C714.46,-713.73 724.85,-713.73 735.16,-713.73"/>
<polygon fill="#757575" stroke="#757575" points="735.44,-717.23 745.44,-713.73 735.44,-710.23 735.44,-717.23"/>
</g>
<!-- components/template/WeeklyCalender.tsx&#45;&gt;model/Utils.tsx -->
<g id="edge63" class="edge">
<title>components/template/WeeklyCalender.tsx&#45;&gt;model/Utils.tsx</title>
<path fill="none" stroke="#757575" d="M1173.86,-280.44C1202.13,-301.98 1261.76,-350.48 1299,-402.73 1321.39,-434.15 1310.2,-452.18 1335,-481.73 1431.37,-596.56 1497.28,-577.44 1613,-672.73 1678.38,-726.57 1747.67,-799.51 1779.14,-833.64"/>
<polygon fill="#757575" stroke="#757575" points="1776.62,-836.07 1785.96,-841.07 1781.78,-831.34 1776.62,-836.07"/>
</g>
<!-- components/template/WeeklyCalender.tsx&#45;&gt;config.ts -->
<g id="edge62" class="edge">
<title>components/template/WeeklyCalender.tsx&#45;&gt;config.ts</title>
<path fill="none" stroke="#757575" d="M1266.22,-280.25C1360.93,-293.2 1500.56,-319.39 1613,-369.73 1678.76,-399.18 1744.58,-454.28 1776.55,-483.09"/>
<polygon fill="#757575" stroke="#757575" points="1774.54,-486 1784.28,-490.15 1779.25,-480.83 1774.54,-486"/>
</g>
<!-- components/button/DispCalenderButton.tsx -->
<g id="node21" class="node">
<title>components/button/DispCalenderButton.tsx</title>
<path fill="none" stroke="#c6c5fe" d="M1605.33,-241.23C1605.33,-241.23 1342.67,-241.23 1342.67,-241.23 1338.83,-241.23 1335,-237.4 1335,-233.57 1335,-233.57 1335,-225.9 1335,-225.9 1335,-222.07 1338.83,-218.23 1342.67,-218.23 1342.67,-218.23 1605.33,-218.23 1605.33,-218.23 1609.17,-218.23 1613,-222.07 1613,-225.9 1613,-225.9 1613,-233.57 1613,-233.57 1613,-237.4 1609.17,-241.23 1605.33,-241.23"/>
<text text-anchor="middle" x="1474" y="-226.03" font-family="Arial" font-size="14.00" fill="#c6c5fe">components/button/DispCalenderButton.tsx</text>
</g>
<!-- components/template/WeeklyCalender.tsx&#45;&gt;components/button/DispCalenderButton.tsx -->
<g id="edge61" class="edge">
<title>components/template/WeeklyCalender.tsx&#45;&gt;components/button/DispCalenderButton.tsx</title>
<path fill="none" stroke="#757575" d="M1251.23,-257.19C1288.54,-252.57 1331.65,-247.23 1369.88,-242.5"/>
<polygon fill="#757575" stroke="#757575" points="1370.51,-245.95 1380.01,-241.25 1369.65,-239 1370.51,-245.95"/>
</g>
<!-- components/template/WeeklyCalender.tsx&#45;&gt;model/token.tsx -->
<g id="edge64" class="edge">
<title>components/template/WeeklyCalender.tsx&#45;&gt;model/token.tsx</title>
<path fill="none" stroke="#757575" d="M1292.14,-264.5C1503.66,-259.09 1895.93,-254.59 1946,-293.73 1994.56,-331.7 2025.15,-528.01 2034.19,-594.04"/>
<polygon fill="#757575" stroke="#757575" points="2030.74,-594.68 2035.54,-604.13 2037.68,-593.76 2030.74,-594.68"/>
</g>
<!-- components/button/CompletedCheck.tsx -->
<g id="node18" class="node">
<title>components/button/CompletedCheck.tsx</title>
<path fill="none" stroke="#c6c5fe" d="M1279.83,-705.23C1279.83,-705.23 1034.17,-705.23 1034.17,-705.23 1030.33,-705.23 1026.5,-701.4 1026.5,-697.57 1026.5,-697.57 1026.5,-689.9 1026.5,-689.9 1026.5,-686.07 1030.33,-682.23 1034.17,-682.23 1034.17,-682.23 1279.83,-682.23 1279.83,-682.23 1283.67,-682.23 1287.5,-686.07 1287.5,-689.9 1287.5,-689.9 1287.5,-697.57 1287.5,-697.57 1287.5,-701.4 1283.67,-705.23 1279.83,-705.23"/>
<text text-anchor="middle" x="1157" y="-690.03" font-family="Arial" font-size="14.00" fill="#c6c5fe">components/button/CompletedCheck.tsx</text>
</g>
<!-- components/button/CompletedCheck.tsx&#45;&gt;model/TodoTypes.tsx -->
<g id="edge22" class="edge">
<title>components/button/CompletedCheck.tsx&#45;&gt;model/TodoTypes.tsx</title>
<path fill="none" stroke="#757575" d="M1271.82,-705.28C1281.5,-709.01 1290.73,-713.75 1299,-719.73 1326.06,-739.34 1307.98,-766.08 1335,-785.73 1351.45,-797.69 1371.82,-804.62 1391.83,-808.53"/>
<polygon fill="#757575" stroke="#757575" points="1391.46,-812.01 1401.91,-810.25 1392.65,-805.11 1391.46,-812.01"/>
</g>
<!-- components/button/DispCalenderButton.tsx&#45;&gt;components/styles/ButtonStyles.tsx -->
<g id="edge23" class="edge">
<title>components/button/DispCalenderButton.tsx&#45;&gt;components/styles/ButtonStyles.tsx</title>
<path fill="none" stroke="#757575" d="M1613.21,-229.73C1632.78,-229.73 1652.8,-229.73 1672.08,-229.73"/>
<polygon fill="#757575" stroke="#757575" points="1672.09,-233.23 1682.09,-229.73 1672.09,-226.23 1672.09,-233.23"/>
</g>
<!-- components/button/TodoCopyButton.tsx -->
<g id="node23" class="node">
<title>components/button/TodoCopyButton.tsx</title>
<path fill="none" stroke="#cfffac" d="M1594.83,-864.23C1594.83,-864.23 1353.17,-864.23 1353.17,-864.23 1349.33,-864.23 1345.5,-860.4 1345.5,-856.57 1345.5,-856.57 1345.5,-848.9 1345.5,-848.9 1345.5,-845.07 1349.33,-841.23 1353.17,-841.23 1353.17,-841.23 1594.83,-841.23 1594.83,-841.23 1598.67,-841.23 1602.5,-845.07 1602.5,-848.9 1602.5,-848.9 1602.5,-856.57 1602.5,-856.57 1602.5,-860.4 1598.67,-864.23 1594.83,-864.23"/>
<text text-anchor="middle" x="1474" y="-849.03" font-family="Arial" font-size="14.00" fill="#cfffac">components/button/TodoCopyButton.tsx</text>
</g>
<!-- components/button/TodoDeleteButton.tsx -->
<g id="node24" class="node">
<title>components/button/TodoDeleteButton.tsx</title>
<path fill="none" stroke="#cfffac" d="M1598.33,-905.23C1598.33,-905.23 1349.67,-905.23 1349.67,-905.23 1345.83,-905.23 1342,-901.4 1342,-897.57 1342,-897.57 1342,-889.9 1342,-889.9 1342,-886.07 1345.83,-882.23 1349.67,-882.23 1349.67,-882.23 1598.33,-882.23 1598.33,-882.23 1602.17,-882.23 1606,-886.07 1606,-889.9 1606,-889.9 1606,-897.57 1606,-897.57 1606,-901.4 1602.17,-905.23 1598.33,-905.23"/>
<text text-anchor="middle" x="1474" y="-890.03" font-family="Arial" font-size="14.00" fill="#cfffac">components/button/TodoDeleteButton.tsx</text>
</g>
<!-- components/form/CommentForm.tsx&#45;&gt;model/Utils.tsx -->
<g id="edge25" class="edge">
<title>components/form/CommentForm.tsx&#45;&gt;model/Utils.tsx</title>
<path fill="none" stroke="#757575" d="M1495.08,-473.28C1523.66,-490.39 1576.65,-524.71 1613,-563.73 1695.25,-652.02 1762.45,-782.03 1786.74,-832.06"/>
<polygon fill="#757575" stroke="#757575" points="1783.66,-833.73 1791.14,-841.23 1789.97,-830.7 1783.66,-833.73"/>
</g>
<!-- components/form/CommentForm.tsx&#45;&gt;config.ts -->
<g id="edge24" class="edge">
<title>components/form/CommentForm.tsx&#45;&gt;config.ts</title>
<path fill="none" stroke="#757575" d="M1567.56,-473.25C1628.78,-480.87 1706.21,-490.5 1753.5,-496.38"/>
<polygon fill="#757575" stroke="#757575" points="1753.34,-499.89 1763.7,-497.65 1754.21,-492.94 1753.34,-499.89"/>
</g>
<!-- components/form/CommentForm.tsx&#45;&gt;model/token.tsx -->
<g id="edge26" class="edge">
<title>components/form/CommentForm.tsx&#45;&gt;model/token.tsx</title>
<path fill="none" stroke="#757575" d="M1523.57,-450.2C1613.48,-431.62 1809.15,-404.36 1946,-480.73 1990.79,-505.73 2017.81,-563.13 2029.74,-594.43"/>
<polygon fill="#757575" stroke="#757575" points="2026.5,-595.76 2033.22,-603.96 2033.08,-593.37 2026.5,-595.76"/>
</g>
<!-- model/token.tsx&#45;&gt;libs/firebase.tsx -->
<g id="edge66" class="edge">
<title>model/token.tsx&#45;&gt;libs/firebase.tsx</title>
<path fill="none" stroke="#757575" d="M2041.83,-627.24C2059.53,-699.14 2155,-1086.93 2178.68,-1183.13"/>
<polygon fill="#757575" stroke="#757575" points="2175.3,-1184.04 2181.09,-1192.92 2182.1,-1182.37 2175.3,-1184.04"/>
</g>
<!-- components/form/TodoForm.tsx -->
<g id="node27" class="node">
<title>components/form/TodoForm.tsx</title>
<path fill="none" stroke="#c6c5fe" d="M1253.83,-785.23C1253.83,-785.23 1060.17,-785.23 1060.17,-785.23 1056.33,-785.23 1052.5,-781.4 1052.5,-777.57 1052.5,-777.57 1052.5,-769.9 1052.5,-769.9 1052.5,-766.07 1056.33,-762.23 1060.17,-762.23 1060.17,-762.23 1253.83,-762.23 1253.83,-762.23 1257.67,-762.23 1261.5,-766.07 1261.5,-769.9 1261.5,-769.9 1261.5,-777.57 1261.5,-777.57 1261.5,-781.4 1257.67,-785.23 1253.83,-785.23"/>
<text text-anchor="middle" x="1157" y="-770.03" font-family="Arial" font-size="14.00" fill="#c6c5fe">components/form/TodoForm.tsx</text>
</g>
<!-- components/form/TodoForm.tsx&#45;&gt;model/TodoTypes.tsx -->
<g id="edge27" class="edge">
<title>components/form/TodoForm.tsx&#45;&gt;model/TodoTypes.tsx</title>
<path fill="none" stroke="#757575" d="M1253.37,-785.24C1297.62,-790.58 1349.67,-796.86 1391.99,-801.96"/>
<polygon fill="#757575" stroke="#757575" points="1391.63,-805.44 1401.98,-803.17 1392.47,-798.49 1391.63,-805.44"/>
</g>
<!-- components/hooks/usePostTodo.tsx&#45;&gt;model/Utils.tsx -->
<g id="edge37" class="edge">
<title>components/hooks/usePostTodo.tsx&#45;&gt;model/Utils.tsx</title>
<path fill="none" stroke="#757575" d="M1233.98,-1058.24C1327.27,-1069 1488.44,-1076.44 1613,-1023.73 1690.27,-991.04 1755.17,-910.69 1782.55,-872.95"/>
<polygon fill="#757575" stroke="#757575" points="1785.74,-874.5 1788.69,-864.32 1780.04,-870.44 1785.74,-874.5"/>
</g>
<!-- components/hooks/usePostTodo.tsx&#45;&gt;config.ts -->
<g id="edge35" class="edge">
<title>components/hooks/usePostTodo.tsx&#45;&gt;config.ts</title>
<path fill="none" stroke="#757575" d="M1220.55,-1035.23C1330.91,-1013.85 1554.1,-965.47 1613,-913.73 1642.9,-887.47 1632.88,-868.12 1649,-831.73 1700.83,-714.74 1763.67,-574.76 1787.1,-522.63"/>
<polygon fill="#757575" stroke="#757575" points="1790.34,-523.97 1791.25,-513.41 1783.95,-521.1 1790.34,-523.97"/>
</g>
<!-- components/hooks/usePostTodo.tsx&#45;&gt;model/TodoTypes.tsx -->
<g id="edge36" class="edge">
<title>components/hooks/usePostTodo.tsx&#45;&gt;model/TodoTypes.tsx</title>
<path fill="none" stroke="#757575" d="M1210.35,-1035.19C1240.48,-1025.91 1276.69,-1009.8 1299,-982.73 1342.88,-929.5 1284.07,-878.27 1335,-831.73 1350.44,-817.63 1371.16,-810.77 1391.85,-807.86"/>
<polygon fill="#757575" stroke="#757575" points="1392.43,-811.32 1401.99,-806.74 1391.66,-804.36 1392.43,-811.32"/>
</g>
<!-- components/hooks/usePostTodo.tsx&#45;&gt;model/token.tsx -->
<g id="edge38" class="edge">
<title>components/hooks/usePostTodo.tsx&#45;&gt;model/token.tsx</title>
<path fill="none" stroke="#757575" d="M1214.12,-1058.29C1301.17,-1074.02 1473.28,-1096.28 1613,-1059.73 1777.21,-1016.78 1836.69,-1002.59 1946,-872.73 2006.67,-800.66 2028.01,-685.3 2034.5,-637.53"/>
<polygon fill="#757575" stroke="#757575" points="2038,-637.77 2035.79,-627.41 2031.05,-636.89 2038,-637.77"/>
</g>
<!-- components/hooks/useGetTodos.tsx&#45;&gt;model/Utils.tsx -->
<g id="edge33" class="edge">
<title>components/hooks/useGetTodos.tsx&#45;&gt;model/Utils.tsx</title>
<path fill="none" stroke="#757575" d="M1208.67,-625.27C1238.02,-634.13 1273.99,-648.97 1299,-672.73 1325.81,-698.2 1305.31,-725.7 1335,-747.73 1435.4,-822.23 1491.55,-761.06 1613,-790.73 1664.13,-803.23 1721.33,-823.62 1758.06,-837.58"/>
<polygon fill="#757575" stroke="#757575" points="1756.81,-840.85 1767.4,-841.16 1759.32,-834.31 1756.81,-840.85"/>
</g>
<!-- components/hooks/useGetTodos.tsx&#45;&gt;config.ts -->
<g id="edge31" class="edge">
<title>components/hooks/useGetTodos.tsx&#45;&gt;config.ts</title>
<path fill="none" stroke="#757575" d="M1223.63,-602.22C1354.5,-579.27 1644.71,-528.36 1753.87,-509.21"/>
<polygon fill="#757575" stroke="#757575" points="1754.62,-512.63 1763.86,-507.46 1753.41,-505.74 1754.62,-512.63"/>
</g>
<!-- components/hooks/useGetTodos.tsx&#45;&gt;model/TodoTypes.tsx -->
<g id="edge32" class="edge">
<title>components/hooks/useGetTodos.tsx&#45;&gt;model/TodoTypes.tsx</title>
<path fill="none" stroke="#757575" d="M1214.08,-625.26C1243,-633.87 1276.78,-648.47 1299,-672.73 1334.6,-711.61 1295.52,-750.81 1335,-785.73 1350.61,-799.55 1371.19,-807.03 1391.68,-810.88"/>
<polygon fill="#757575" stroke="#757575" points="1391.28,-814.36 1401.71,-812.48 1392.39,-807.45 1391.28,-814.36"/>
</g>
<!-- components/hooks/useGetTodos.tsx&#45;&gt;model/token.tsx -->
<g id="edge34" class="edge">
<title>components/hooks/useGetTodos.tsx&#45;&gt;model/token.tsx</title>
<path fill="none" stroke="#757575" d="M1275.18,-614C1462.67,-614.43 1823.98,-615.25 1971.67,-615.59"/>
<polygon fill="#757575" stroke="#757575" points="1971.92,-619.09 1981.93,-615.61 1971.94,-612.09 1971.92,-619.09"/>
</g>
<!-- components/hooks/useUpdateAddition.tsx&#45;&gt;model/Utils.tsx -->
<g id="edge40" class="edge">
<title>components/hooks/useUpdateAddition.tsx&#45;&gt;model/Utils.tsx</title>
<path fill="none" stroke="#757575" d="M1567.25,-705.26C1582.88,-708.85 1598.67,-713.56 1613,-719.73 1679.34,-748.31 1744.91,-804.3 1776.69,-833.69"/>
<polygon fill="#757575" stroke="#757575" points="1774.68,-836.61 1784.37,-840.89 1779.47,-831.5 1774.68,-836.61"/>
</g>
<!-- components/hooks/useUpdateAddition.tsx&#45;&gt;config.ts -->
<g id="edge39" class="edge">
<title>components/hooks/useUpdateAddition.tsx&#45;&gt;config.ts</title>
<path fill="none" stroke="#757575" d="M1494.63,-682.01C1549.46,-649.26 1704.44,-556.71 1768.38,-518.53"/>
<polygon fill="#757575" stroke="#757575" points="1770.34,-521.43 1777.13,-513.3 1766.75,-515.42 1770.34,-521.43"/>
</g>
<!-- components/hooks/useUpdateAddition.tsx&#45;&gt;model/token.tsx -->
<g id="edge41" class="edge">
<title>components/hooks/useUpdateAddition.tsx&#45;&gt;model/token.tsx</title>
<path fill="none" stroke="#757575" d="M1608.72,-702.53C1704.55,-704.97 1835.65,-700.32 1946,-667.73 1970.67,-660.45 1995.84,-645.35 2013.44,-633.3"/>
<polygon fill="#757575" stroke="#757575" points="2015.75,-635.95 2021.91,-627.32 2011.72,-630.23 2015.75,-635.95"/>
</g>
<!-- components/template/TodoItem.tsx&#45;&gt;model/Utils.tsx -->
<g id="edge48" class="edge">
<title>components/template/TodoItem.tsx&#45;&gt;model/Utils.tsx</title>
<path fill="none" stroke="#757575" d="M871.72,-725.37C895.69,-749.53 954.66,-805.35 1015,-834.73 1146.7,-898.88 1189.58,-896.05 1335,-913.73 1457.65,-928.65 1491.03,-933.48 1613,-913.73 1666.16,-905.13 1724.75,-883.36 1761.09,-868.3"/>
<polygon fill="#757575" stroke="#757575" points="1762.87,-871.35 1770.73,-864.24 1760.16,-864.89 1762.87,-871.35"/>
</g>
<!-- components/template/TodoItem.tsx&#45;&gt;config.ts -->
<g id="edge46" class="edge">
<title>components/template/TodoItem.tsx&#45;&gt;config.ts</title>
<path fill="none" stroke="#757575" d="M871.24,-702.21C894.75,-677.76 953.58,-620.63 1015,-592.73 1275.11,-474.58 1631.85,-488.75 1753.7,-497.89"/>
<polygon fill="#757575" stroke="#757575" points="1753.51,-501.39 1763.75,-498.67 1754.05,-494.41 1753.51,-501.39"/>
</g>
<!-- components/template/TodoItem.tsx&#45;&gt;components/button/CompletedCheck.tsx -->
<g id="edge42" class="edge">
<title>components/template/TodoItem.tsx&#45;&gt;components/button/CompletedCheck.tsx</title>
<path fill="none" stroke="#757575" d="M973.9,-706.06C987.65,-705.13 1001.83,-704.17 1015.91,-703.22"/>
<polygon fill="#757575" stroke="#757575" points="1016.39,-706.69 1026.13,-702.52 1015.92,-699.71 1016.39,-706.69"/>
</g>
<!-- components/template/TodoItem.tsx&#45;&gt;model/TodoTypes.tsx -->
<g id="edge47" class="edge">
<title>components/template/TodoItem.tsx&#45;&gt;model/TodoTypes.tsx</title>
<path fill="none" stroke="#757575" d="M973.58,-715.6C1083.78,-718.88 1242.71,-727.91 1299,-752.73 1318.86,-761.49 1315.59,-776.02 1335,-785.73 1352.45,-794.47 1372.48,-800.28 1391.77,-804.15"/>
<polygon fill="#757575" stroke="#757575" points="1391.3,-807.62 1401.77,-806 1392.58,-800.74 1391.3,-807.62"/>
</g>
<!-- components/template/TodoItem.tsx&#45;&gt;components/form/CommentForm.tsx -->
<g id="edge43" class="edge">
<title>components/template/TodoItem.tsx&#45;&gt;components/form/CommentForm.tsx</title>
<path fill="none" stroke="#757575" d="M868.13,-701.96C897.7,-656.45 1003.62,-494.16 1015,-487.73 1069.32,-457.07 1228.65,-454.2 1344.14,-456.59"/>
<polygon fill="#757575" stroke="#757575" points="1344.4,-460.09 1354.47,-456.82 1344.55,-453.09 1344.4,-460.09"/>
</g>
<!-- components/template/TodoItem.tsx&#45;&gt;model/token.tsx -->
<g id="edge49" class="edge">
<title>components/template/TodoItem.tsx&#45;&gt;model/token.tsx</title>
<path fill="none" stroke="#757575" d="M902.05,-702.22C943.88,-690.71 1003.79,-674.46 1015,-672.73 1424.39,-609.7 1533.83,-670.84 1946,-629.73 1954.35,-628.9 1963.09,-627.82 1971.73,-626.63"/>
<polygon fill="#757575" stroke="#757575" points="1972.38,-630.07 1981.78,-625.19 1971.38,-623.15 1972.38,-630.07"/>
</g>
<!-- components/template/TodoItem.tsx&#45;&gt;components/form/TodoForm.tsx -->
<g id="edge44" class="edge">
<title>components/template/TodoItem.tsx&#45;&gt;components/form/TodoForm.tsx</title>
<path fill="none" stroke="#757575" d="M910.86,-725.27C941.01,-732.07 980.14,-740.69 1015,-747.73 1036.38,-752.06 1059.64,-756.47 1080.99,-760.4"/>
<polygon fill="#757575" stroke="#757575" points="1080.51,-763.87 1090.98,-762.22 1081.77,-756.98 1080.51,-763.87"/>
</g>
<!-- components/template/TodoItemTemplate.tsx -->
<g id="node32" class="node">
<title>components/template/TodoItemTemplate.tsx</title>
<path fill="none" stroke="#c6c5fe" d="M1291.33,-826.23C1291.33,-826.23 1022.67,-826.23 1022.67,-826.23 1018.83,-826.23 1015,-822.4 1015,-818.57 1015,-818.57 1015,-810.9 1015,-810.9 1015,-807.07 1018.83,-803.23 1022.67,-803.23 1022.67,-803.23 1291.33,-803.23 1291.33,-803.23 1295.17,-803.23 1299,-807.07 1299,-810.9 1299,-810.9 1299,-818.57 1299,-818.57 1299,-822.4 1295.17,-826.23 1291.33,-826.23"/>
<text text-anchor="middle" x="1157" y="-811.03" font-family="Arial" font-size="14.00" fill="#c6c5fe">components/template/TodoItemTemplate.tsx</text>
</g>
<!-- components/template/TodoItem.tsx&#45;&gt;components/template/TodoItemTemplate.tsx -->
<g id="edge45" class="edge">
<title>components/template/TodoItem.tsx&#45;&gt;components/template/TodoItemTemplate.tsx</title>
<path fill="none" stroke="#757575" d="M878.19,-725.39C906.06,-743.15 962.41,-776.72 1015,-793.73 1023.65,-796.53 1032.71,-798.96 1041.9,-801.06"/>
<polygon fill="#757575" stroke="#757575" points="1041.39,-804.53 1051.91,-803.22 1042.87,-797.69 1041.39,-804.53"/>
</g>
<!-- components/template/TodoItemTemplate.tsx&#45;&gt;model/TodoTypes.tsx -->
<g id="edge53" class="edge">
<title>components/template/TodoItemTemplate.tsx&#45;&gt;model/TodoTypes.tsx</title>
<path fill="none" stroke="#757575" d="M1299.38,-813.39C1330.98,-813.09 1363.47,-812.78 1391.67,-812.51"/>
<polygon fill="#757575" stroke="#757575" points="1391.88,-816.01 1401.85,-812.41 1391.82,-809.01 1391.88,-816.01"/>
</g>
<!-- components/template/TodoItemTemplate.tsx&#45;&gt;components/button/TodoCopyButton.tsx -->
<g id="edge50" class="edge">
<title>components/template/TodoItemTemplate.tsx&#45;&gt;components/button/TodoCopyButton.tsx</title>
<path fill="none" stroke="#757575" d="M1253.37,-826.24C1289.28,-830.57 1330.33,-835.52 1367.15,-839.96"/>
<polygon fill="#757575" stroke="#757575" points="1367.07,-843.48 1377.42,-841.2 1367.91,-836.53 1367.07,-843.48"/>
</g>
<!-- components/template/TodoItemTemplate.tsx&#45;&gt;components/button/TodoDeleteButton.tsx -->
<g id="edge51" class="edge">
<title>components/template/TodoItemTemplate.tsx&#45;&gt;components/button/TodoDeleteButton.tsx</title>
<path fill="none" stroke="#757575" d="M1187.94,-826.24C1222.8,-839.23 1282.31,-860.18 1335,-872.73 1347.09,-875.61 1359.88,-878.18 1372.59,-880.45"/>
<polygon fill="#757575" stroke="#757575" points="1372.31,-883.95 1382.76,-882.2 1373.5,-877.05 1372.31,-883.95"/>
</g>
<!-- components/template/TodoItemTemplate.tsx&#45;&gt;components/hooks/useUpdateAddition.tsx -->
<g id="edge52" class="edge">
<title>components/template/TodoItemTemplate.tsx&#45;&gt;components/hooks/useUpdateAddition.tsx</title>
<path fill="none" stroke="#757575" d="M1264.9,-803.16C1276.56,-800.61 1288.13,-797.51 1299,-793.73 1356.75,-773.65 1417.1,-734.1 1449.34,-711.22"/>
<polygon fill="#757575" stroke="#757575" points="1451.58,-713.92 1457.66,-705.24 1447.5,-708.23 1451.58,-713.92"/>
</g>
</g>
</svg>
